<svg t="1687231750774" class="icon" viewBox="0 0 1024 1024" version="1.1" xmlns="http://www.w3.org/2000/svg" p-id="1444" width="200" height="200"><path d="M152.03328 11.22816c-43.93984 0-80.14848 36.08576-80.14848 80.14848v845.19936c0 43.93984 36.08576 80.14848 80.14848 80.14848h719.5136c43.93984 0 80.14848-36.08576 80.14848-80.14848V330.112l-296.9088-318.88384H152.03328z" fill="#8199AF" p-id="1445"></path><path d="M951.69536 331.70432v15.71328H750.6432s-98.92864-20.3776-97.45408-105.31328c0 0 3.18976 89.6 94.26432 89.6h204.24192z" fill="#617F9B" p-id="1446"></path><path d="M330.42432 644.11648c4.52608 0 8.29952 1.05472 11.25888 3.21536 2.6112 1.90464 4.51072 4.4032 5.67296 7.3984l60.92288 176.98304 0.39424 1.29024c1.3056 4.57728 1.26976 8.62208-0.19968 12.0832-1.67936 3.96288-5.40672 6.02112-10.68032 6.26176l-2.35008 0.04608-1.11616-0.06656a11.81184 11.81184 0 0 1-7.36768-3.4304 19.92704 19.92704 0 0 1-4.62336-7.53664l-0.41984-1.29024-15.16032-42.17344H294.3744l-11.14624 31.2832-0.95744 2.65216c-0.64 1.75616-1.28 3.46624-1.92512 5.13536-1.00864 2.61632-2.16576 5.03808-3.4816 7.2704-1.408 2.37056-3.05152 4.29568-4.95104 5.74464-2.0736 1.5872-4.48512 2.39104-7.14752 2.39104-4.52608 0-8.192-1.47968-10.80832-4.4544-2.70336-3.06688-2.86208-7.92064-0.896-14.58176l0.39424-1.27488 60.64128-176.39936c1.16224-2.97472 2.99008-5.4272 5.45792-7.30112 2.8672-2.18112 6.51776-3.24608 10.86976-3.24608z m303.67744 0c4.67456 0 8.22784 1.18272 10.50624 3.71712 1.96608 2.18624 3.01568 5.14048 3.20512 8.78592l0.03072 1.23904v64.75264l72.3456-65.5616 3.3792-2.85184 3.328-2.85696c2.34496-2.03776 4.7104-3.6864 7.0912-4.92544 2.58048-1.34656 5.12-1.98656 7.61344-1.86368 2.6624 0.12288 5.25312 1.38752 7.8848 3.7888 5.5296 5.76 4.45952 12.5184-2.5088 19.29216l-0.80384 0.75264-83.05152 72.704 87.22432 83.584 0.98304 1.01888c3.36384 3.61984 5.3504 7.17824 5.87264 10.70592 0.57856 3.95264-0.32768 7.45984-2.67264 10.27072-5.05344 6.43072-12.0832 6.20544-20.1216-0.1792l-0.896-0.73216-85.66784-85.12512v77.9264l-0.03072 1.1264c-0.1792 3.27168-1.12128 5.98016-2.8672 8.05376-2.11456 2.51392-5.76512 3.6352-10.84416 3.6352-4.864 0-8.50432-1.1776-10.79296-3.71712-1.92512-2.13504-2.98496-4.82304-3.19488-7.96672l-0.04096-1.19808v-180.70528l0.03584-1.19808c0.2048-3.44576 1.24416-6.33344 3.15904-8.56576 2.28352-2.6624 5.94944-3.90656 10.83392-3.90656z m-121.1392 3.15392l2.31424 0.02048c21.02272 0.33792 36.81792 5.3504 47.29856 15.15008 10.9056 10.19904 16.29184 26.112 16.29184 47.60064 0 41.71776-21.63712 63.2832-64.01536 63.90272l-1.90976 0.01536h-36.43904v63.45216l-0.03072 1.2544c-0.19968 3.59424-1.23392 6.5536-3.15904 8.8064-2.2784 2.65216-5.85216 3.90144-10.5472 3.90144-4.92544 0-8.63232-1.37728-10.9056-4.28032-1.85344-2.37056-2.87744-5.2224-3.08736-8.4992l-0.03584-1.24928v-173.78816l0.02048-1.28512c0.15872-5.4784 1.34656-9.3696 3.83488-11.61728 2.44736-2.21696 6.91712-3.24608 13.58336-3.36896l1.46432-0.01536h45.32224z m-182.25664 36.76672L301.568 771.70688h58.28096l-29.14304-87.66976z m182.23616-11.57632h-36.43904v76.88192h36.43904c14.08 0 23.92576-3.13344 29.67552-9.23136 5.79584-6.144 8.76544-16.04096 8.76544-29.78304 0-13.6704-3.29728-23.296-9.7536-29.056-6.22592-5.5552-15.13472-8.50944-26.81856-8.79104l-1.8688-0.02048zM654.78656 11.22816l296.9088 320.47616H750.6432c-78.55104 0-95.85664-65.90976-95.85664-91.07456V11.22816z" fill="#FFFFFF" p-id="1447"></path></svg>