<svg t="1687231895957" class="icon" viewBox="0 0 1024 1024" version="1.1" xmlns="http://www.w3.org/2000/svg" p-id="1120" width="200" height="200"><path d="M146.56 0C104.96 0 66.56 35.2 66.56 80V940.8C66.56 985.6 101.76 1024 146.56 1024H879.36c44.8 0 80-35.2 80-80V323.2L658.56 0h-512z" fill="#379FD3" p-id="1121"></path><path d="M962.56 326.4v16h-204.8s-99.2-19.2-96-108.8c0 0 3.2 92.8 96 92.8h204.8z" fill="#2987C8" p-id="1122"></path><path d="M658.56 0v233.6c0 25.6 16 92.8 96 92.8H962.56L658.56 0zM540.16 544l-227.2 32v214.4c-12.8-3.2-25.6-3.2-38.4 0-32 6.4-51.2 28.8-44.8 48s35.2 32 70.4 25.6c28.8-3.2 48-22.4 48-38.4V652.8l166.4-19.2v131.2c-12.8-3.2-25.6-3.2-38.4 0-35.2 6.4-54.4 28.8-48 48s35.2 32 70.4 25.6c28.8-6.4 48-25.6 48-41.6V544h-6.4z" fill="#FFFFFF" p-id="1123"></path></svg>