<svg t="1687229063655" class="icon" viewBox="0 0 1024 1024" version="1.1" xmlns="http://www.w3.org/2000/svg" p-id="3665" width="200" height="200"><path d="M901.632 926.72c0 12.8-5.12 25.088-14.336 34.304-9.216 9.216-21.504 14.336-34.304 14.336H170.496c-12.8 0-25.6-5.12-34.304-14.336-9.216-9.216-14.336-21.504-14.336-34.304V48.64c0-12.8 5.12-25.6 14.336-34.304C144.896 5.12 157.696 0 170.496 0h418.816c12.8 0 25.6 5.12 34.816 14.336l263.68 263.68c9.216 9.216 14.336 21.504 14.336 34.816V926.72z" fill="#EBECF0" p-id="3666"></path><path d="M901.632 926.72v48.64c0 12.8-5.12 25.6-14.336 34.304-9.216 9.216-21.504 14.336-34.304 14.336H170.496c-27.136 0-48.64-22.016-48.64-48.64V926.72c0 12.8 5.12 25.088 14.336 34.304 9.216 9.216 21.504 14.336 34.304 14.336h682.496c27.136 0 48.64-22.016 48.64-48.64z" fill="#C1C7D0" p-id="3667"></path><path d="M24.064 536.576h975.36v243.712c0 27.136-22.016 48.64-48.64 48.64H73.216c-12.8 0-25.6-5.12-34.304-14.336-9.216-9.216-14.336-21.504-14.336-34.816v-243.2z" fill="#00C1B3" p-id="3668"></path><path d="M121.856 536.576V438.784L24.064 536.576h97.792z m779.776 0l1.024-97.792 97.28 97.792h-98.304z" fill="#009385" p-id="3669"></path><path d="M901.632 312.832v6.656h-263.68c-27.136 0-48.64-22.016-48.64-48.64V0c12.8 0 25.6 5.12 34.816 14.336l264.192 263.68c8.704 9.216 13.824 21.504 13.312 34.816z" fill="#C1C7D0" p-id="3670"></path><path d="M500.736 769.536H342.528v-188.928h155.136v44.032H404.992v26.624h78.336v44.032H404.992v29.696h95.744v44.544zM520.192 629.76v-49.152h173.568v49.152h-55.296v139.776h-62.464V629.76h-55.808z" fill="#FFFFFF" p-id="3671"></path></svg>