<svg t="1687231819593" class="icon" viewBox="0 0 1024 1024" version="1.1" xmlns="http://www.w3.org/2000/svg" p-id="1768" width="200" height="200"><path d="M149.76 0C104.96 0 66.56 35.2 66.56 80V940.8c0 48 38.4 83.2 83.2 83.2h732.8c44.8 0 80-35.2 80-80V323.2L658.56 0H149.76z" fill="#8199AF" p-id="1769"></path><path d="M962.56 326.4v16h-204.8s-99.2-19.2-99.2-105.6c0 0 3.2 89.6 96 89.6H962.56z" fill="#617F9B" p-id="1770"></path><path d="M445.952 648.8064c3.00544 0.128 5.84704 2.0992 8.7296 5.7344l0.7168 0.9472 47.79008 68.11136 45.7216-65.42848 0.64512-1.01888c2.82112-4.3008 5.89824-6.89152 9.33376-7.5776 3.56352-0.7168 7.1168 0.11264 10.54208 2.39616 6.32832 4.3008 7.2704 10.58816 2.944 17.8688l-0.5632 0.9216-52.87424 75.36128 62.83776 89.51808 0.65024 1.3824c1.07008 2.41152 1.7408 4.74624 2.01216 6.99904 0.41984 3.49696-1.56672 6.64064-5.55008 9.45152-7.39328 5.00224-14.1312 3.92192-19.03104-2.97984l-0.55296-0.82432-56.40192-80.44544-56.43264 80.50688-0.73728 0.98816c-2.47296 3.13856-5.30432 5.04832-8.47872 5.59616-3.20512 0.55296-6.34368-0.24576-9.216-2.2272l-0.84992-0.62976c-3.16416-2.19136-4.85376-5.43744-4.9664-9.48224-0.1024-3.49184 0.8704-6.66624 2.7904-9.2928l0.67584-0.85504 61.19424-87.41888-52.83328-75.59168-0.60416-0.81408c-1.67424-2.4576-2.39616-5.41184-2.19136-8.7552a11.42784 11.42784 0 0 1 5.43744-9.28768c3.2768-2.18624 6.36416-3.2768 9.2672-3.15392z m-77.056 3.584l1.3568 0.03072c3.82464 0.15872 6.87104 0.99328 9.1136 2.59584 2.73408 1.95584 4.13696 5.30944 4.36736 9.96864 0 4.40832-1.3824 7.74656-4.27008 9.71264-2.3296 1.5872-5.43232 2.42176-9.30304 2.57024l-1.31584 0.0256H289.9712v59.96032l76.05248 0.00512 1.3312 0.0256c4.22912 0.1536 7.46496 1.05472 9.68192 2.83136 2.6112 2.08384 3.82976 5.49376 3.82976 10.02496 0 4.38784-1.25952 7.65952-3.95776 9.55392-2.21184 1.54624-5.40672 2.31936-9.63072 2.44736l-1.30048 0.02048H289.9712v66.56h71.14752l3.0208 0.01536 1.97632 0.03072 3.81952 0.1024a34.6624 34.6624 0 0 1 7.90016 1.09056c2.53952 0.6912 4.6336 1.88928 6.21568 3.59424 1.72544 1.85344 2.54976 4.38784 2.54976 7.4752 0 4.80256-1.37216 8.29952-4.34176 10.1888-2.3552 1.50016-5.78048 2.26304-10.30144 2.38592l-1.39264 0.02048H277.90848l-1.34144-0.0256c-4.22912-0.16384-7.5776-1.10592-10.02496-2.91328-2.77504-2.048-4.13696-5.6832-4.31616-10.752l-0.02048-1.19808v-171.50464l0.02048-1.16736c0.16896-4.59776 1.32608-8.04352 3.64544-10.25024 2.29376-2.18112 5.90848-3.25632 10.8288-3.4048l1.2544-0.02048H368.896z m363.60192 0l1.3568 0.03072c3.82464 0.15872 6.87104 0.99328 9.1136 2.59584 2.73408 1.95584 4.13696 5.30944 4.36736 9.96864 0 4.40832-1.3824 7.74656-4.27008 9.71264-2.3296 1.5872-5.43232 2.42176-9.30304 2.57024l-1.31584 0.0256h-78.86848v59.96032l76.04736 0.00512 1.3312 0.0256c4.22912 0.1536 7.46496 1.05472 9.68192 2.83136 2.6112 2.08384 3.82976 5.49376 3.82976 10.02496 0 4.38784-1.25952 7.65952-3.95776 9.55392-2.21184 1.54624-5.40672 2.31936-9.63072 2.44736l-1.30048 0.02048h-76.00128v66.56h71.1424l3.0208 0.01536 1.97632 0.03072 3.81952 0.1024a34.6624 34.6624 0 0 1 7.90016 1.09056c2.53952 0.6912 4.6336 1.88928 6.21568 3.59424 1.72544 1.85344 2.54976 4.38784 2.54976 7.4752 0 4.80256-1.37216 8.29952-4.34176 10.1888-2.3552 1.50016-5.78048 2.26304-10.30144 2.38592l-1.39264 0.02048h-92.65664l-1.34144-0.0256c-4.22912-0.16384-7.5776-1.10592-10.02496-2.91328-2.77504-2.048-4.13696-5.6832-4.31616-10.752l-0.02048-1.19808v-171.50464l0.02048-1.16736c0.16896-4.59776 1.32608-8.04352 3.64544-10.25024 2.29376-2.18112 5.90848-3.25632 10.8288-3.4048l1.2544-0.02048h90.94144zM658.56 0L962.56 326.4h-208c-80 0-96-67.2-96-92.8V0z" fill="#FFFFFF" p-id="1771"></path></svg>