<svg t="1689756727843" class="icon" viewBox="0 0 1024 1024" version="1.1" xmlns="http://www.w3.org/2000/svg" p-id="1528" width="200" height="200"><path d="M590.222222 73.955556L859.022222 342.254933V876.088889c0 37.700267-30.5664 68.266667-68.266666 68.266667H233.244444c-37.700267 0-68.266667-30.5664-68.266666-68.266667V142.222222c0-37.700267 30.5664-68.266667 68.266666-68.266666h356.977778z m-11.764622 28.444444H233.244444a39.822222 39.822222 0 0 0-39.799466 38.456889L193.422222 142.222222v733.866667a39.822222 39.822222 0 0 0 38.456889 39.799467L233.244444 915.911111h557.511112a39.822222 39.822222 0 0 0 39.799466-38.456889L830.577778 876.088889V354.053689L578.4576 102.4z" fill="#FA541C" p-id="1529"></path><path d="M854.755556 370.648178h-215.1424c-45.528178 0-82.551467-36.431644-83.5072-81.737956l-0.017067-1.792V73.955556h28.444444v213.162666c0 29.895111 23.819378 54.232178 53.515378 55.062756l1.564445 0.022755h215.1424v28.444445z" fill="#FA541C" p-id="1530"></path><path d="M56.888889 489.244444m28.444444 0l853.333334 0q28.444444 0 28.444444 28.444445l0 284.444444q0 28.444444-28.444444 28.444445l-853.333334 0q-28.444444 0-28.444444-28.444445l0-284.444444q0-28.444444 28.444444-28.444445Z" fill="#FA541C" p-id="1531"></path><path d="M156.836978 716.8c15.342933 0 28.916622-6.0416 36.585244-13.4144v-51.285333h-40.863289v21.515377h17.408v17.692445c-2.360889 1.763556-6.491022 2.793244-10.325333 2.793244-20.508444 0-30.242133-12.674844-30.242133-34.486044 0-21.367467 11.650844-34.042311 27.875555-34.042311 9.147733 0 14.904889 3.680711 20.366222 8.544711l13.863823-16.799289C183.978667 609.803378 172.475733 603.022222 156.387556 603.022222c-29.354667 0-53.993244 20.929422-53.993245 57.480534 0 37.137067 24.046933 56.297244 54.436978 56.297244zM244.622222 711.111111v-108.088889h-34.133333v108.088889h34.133333z m69.063111 0v-86.471111H341.333333V603.022222H261.688889v21.617778h27.505778V711.111111h24.496355zM392.533333 711.111111v-108.088889h-34.133333v108.088889h34.133333z m65.814756 5.688889c15.342933 0 28.916622-6.0416 36.585244-13.4144v-51.285333h-40.863289v21.515377h17.408v17.692445c-2.360889 1.763556-6.491022 2.793244-10.325333 2.793244-20.508444 0-30.242133-12.674844-30.242133-34.486044 0-21.367467 11.650844-34.042311 27.875555-34.042311 9.147733 0 14.904889 3.680711 20.366223 8.544711l13.863822-16.799289C485.489778 609.803378 473.986844 603.022222 457.898667 603.022222c-29.354667 0-53.993244 20.929422-53.993245 57.480534 0 37.137067 24.046933 56.297244 54.436978 56.297244z m87.938844-5.688889v-35.84c0-13.056-2.019556-27.8528-3.100444-39.896178h0.676978l9.836089 23.648711 24.797866 52.087467H603.022222v-108.088889h-22.909155v35.84c0 12.913778 2.019556 28.433067 3.231289 39.896178h-0.671289l-9.841778-23.938844L547.908267 603.022222H523.377778v108.088889h22.909155zM676.977778 716.8c30.481067 0 51.2-21.515378 51.2-57.480533 0-35.811556-20.718933-56.297244-51.2-56.297245-30.481067 0-51.2 20.337778-51.2 56.297245 0 35.965156 20.718933 57.480533 51.2 57.480533z m2.7648-22.755556c-15.832178 0-25.520356-12.379022-25.520356-31.761066 0-19.376356 9.688178-30.816711 25.520356-30.816711 15.826489 0 25.679644 11.434667 25.679644 30.816711S695.569067 694.044444 679.742578 694.044444z m92.563911 17.066667v-38.013155h13.0048l20.713244 38.013155H836.266667l-25.099378-42.797511c11.645156-5.228089 19.3536-15.382756 19.3536-31.197867 0-26.112-19.956622-34.093511-43.997867-34.093511H745.244444v108.088889h27.062045z m16.480711-51.2H773.688889v-34.133333h15.098311c16.042667 0 24.723911 3.925333 24.723911 15.872s-8.681244 18.261333-24.723911 18.261333zM921.6 711.111111v-21.765689h-42.968178v-22.920533h35.197156v-21.765689h-35.197156V624.64h41.415111V603.022222H853.333333v108.088889h68.266667z" fill="#FFFFFF" p-id="1532"></path></svg>