<svg t="1687229408582" class="icon" viewBox="0 0 1024 1024" version="1.1" xmlns="http://www.w3.org/2000/svg" p-id="7076" width="200" height="200"><path d="M901.63125 926.725c0 12.8-5.125 25.0875-14.3375 34.3-9.225 9.2125-21.5 14.3375-34.3125 14.3375H170.49375c-12.8 0-25.6-5.125-34.3-14.3375-9.2125-9.225-14.3375-21.5-14.3375-34.3V48.6375c0-12.8 5.1125-25.6 14.3375-34.3C144.89375 5.125 157.70625 0 170.49375 0H589.31875c12.8 0 25.6 5.125 34.8125 14.3375l263.675 263.6875c9.2125 9.2125 14.3375 21.5 14.3375 34.8125v613.8875h-0.5125z" fill="#EBECF0" p-id="7077"></path><path d="M901.63125 926.725v48.6375c0 12.8-5.125 25.6-14.3375 34.3-9.225 9.225-21.5 14.3375-34.3125 14.3375H170.49375c-27.1375 0-48.6375-22.0125-48.6375-48.6375v-48.6375c0 12.8 5.1125 25.0875 14.3375 34.3 9.2125 9.2125 21.5 14.3375 34.3 14.3375h682.5c27.1375 0 48.6375-22.0125 48.6375-48.6375z" fill="#C1C7D0" p-id="7078"></path><path d="M121.85625 536.575v-97.8L24.06875 536.575h97.7875z m779.775 0l1.025-97.8 97.275 97.8h-98.3z" fill="#40A080" p-id="7079"></path><path d="M901.63125 312.8375v6.65H637.94375c-27.1375 0-48.6375-22.0125-48.6375-48.6375V0c12.8 0 25.6 5.125 34.8125 14.3375L888.31875 278.025c8.7 9.2125 13.825 21.5 13.3125 34.8125z" fill="#C1C7D0" p-id="7080"></path><path d="M24.58125 536.575v243.2c0 13.3125 5.1125 25.6 14.3375 34.8125 8.7 9.225 21.5 14.3375 34.3 14.3375h877.575c26.625 0 48.6375-21.5 48.6375-48.6375V536.575H24.58125z m345.1875 252.75h-53.7125v-85.9125h-103.15v85.9125H159.19375V576.1625h53.7125v82.55h103.15v-82.55h53.7125v213.1625zM604.44375 620.5625h-76.6v168.7625h-53.7125V620.5625h-75.9875v-44.4H604.44375v44.4z m259.8625 168.7625h-53.7125V653.0625l-59.9625 74.7625h-5.0375L685.31875 653.0625v136.2625h-52.4875V576.1625h48.975l66.8375 82.25 66.9875-82.25h48.675v213.1625z" fill="#69CCAE" p-id="7081"></path><path d="M316.05625 658.7125h-103.15v-82.55H159.19375v213.175h53.7125v-85.9125h103.15v85.9125h53.7125V576.1625h-53.7125v82.55zM398.14375 620.575h75.9875v168.7625h53.7125V620.575h76.6v-44.4125H398.14375v44.4125zM748.64375 658.4125l-66.8375-82.25h-48.975v213.175H685.31875V653.075l60.275 74.7625h5.0375l59.9625-74.7625v136.2625h53.7125V576.1625h-48.675l-66.9875 82.25z" fill="#FFFFFF" p-id="7082"></path></svg>