<svg t="1690967628853" class="icon" viewBox="0 0 1024 1024" version="1.1" xmlns="http://www.w3.org/2000/svg" p-id="1219" width="200" height="200"><path d="M704 0H192c-35.328 0-64 28.672-64 64v320h576c35.328 0 64 28.672 64 64v415.744c0 35.328-28.672 64-64 64H128v31.744c0 35.328 28.672 64 64 64h768c35.328 0 64-28.672 64-64v-640L704 0z" fill="#EAEAEA" p-id="1220"></path><path d="M704 0v256c0 35.328 28.672 64 64 64h256L704 0z" fill="#434854" p-id="1221"></path><path d="M768 320l256 256V320z" opacity=".1" p-id="1222"></path><path d="M704 832c0 17.92-14.336 31.744-31.744 31.744H31.744C13.824 863.744 0 849.408 0 832V480.256c0-17.92 14.336-31.744 31.744-31.744h640c17.92 0 31.744 14.336 31.744 31.744V832z" fill="#5D9ED5" p-id="1223"></path><path d="M234.496 546.304c7.168 0 11.264 5.12 11.264 15.872v193.536c0 10.752-4.608 15.872-11.264 15.872s-11.264-5.12-11.264-15.872V622.08l-44.544 140.8c-2.048 6.144-8.192 8.704-12.288 8.704s-10.24-3.072-12.288-8.704l-46.08-140.8v133.632c0 10.752-6.144 15.872-12.8 15.872s-12.8-5.12-12.8-15.872V562.176c0-10.752 5.632-15.872 12.8-15.872 4.608 0 10.752 3.072 12.8 8.704L166.4 728.064l56.832-173.056c2.048-6.144 6.144-8.704 11.264-8.704z m183.296 6.656c3.584-5.12 9.216-7.68 14.848-6.656 5.632 1.024 10.24 5.632 11.776 11.776l60.416 155.648 60.416-155.648c1.536-4.096 4.608-7.168 8.192-8.704 3.584-1.536 7.68-1.536 11.776 0 6.144 4.608 7.68 13.312 4.096 19.968l-73.728 192c-1.024 2.56-2.56 5.12-5.12 6.144l-3.072 2.048h-5.632a7.104 7.104 0 0 1-4.608 0c-1.536-0.512-3.072-1.536-4.608-3.072l-3.072-4.608-73.728-192c-2.048-5.12-1.536-12.288 2.048-16.896z m-82.432-6.656c34.816 0 62.976 27.648 64 62.464v97.28c0 35.328-28.672 64-64 64-34.816 0-62.976-27.648-64-62.464v-97.28c0-35.328 28.672-64 64-64z m-1.536 30.72c-17.408 0-31.232 13.824-31.744 30.72v96.768c0 17.92 14.336 31.744 31.744 31.744s31.232-13.824 31.744-30.72v-96.768c0.512-17.408-13.824-31.744-31.744-31.744z" fill="#FFFFFF" p-id="1224"></path></svg>