<svg t="1687229552788" class="icon" viewBox="0 0 1024 1024" version="1.1" xmlns="http://www.w3.org/2000/svg" p-id="8534" width="200" height="200"><path d="M901.63125 926.725c0 12.8-5.125 25.0875-14.3375 34.3-9.225 9.2125-21.5 14.3375-34.3125 14.3375H170.49375c-12.8 0-25.6-5.125-34.3-14.3375-9.2125-9.225-14.3375-21.5-14.3375-34.3V48.6375c0-12.8 5.1125-25.6 14.3375-34.3C144.89375 5.125 157.70625 0 170.49375 0H589.31875c12.8 0 25.6 5.125 34.8125 14.3375l263.675 263.6875c9.2125 9.2125 14.3375 21.5 14.3375 34.8125v613.8875h-0.5125z" fill="#EBECF0" p-id="8535"></path><path d="M901.63125 926.725v48.6375c0 12.8-5.125 25.6-14.3375 34.3-9.225 9.225-21.5 14.3375-34.3125 14.3375H170.49375c-27.1375 0-48.6375-22.0125-48.6375-48.6375v-48.6375c0 12.8 5.1125 25.0875 14.3375 34.3 9.2125 9.2125 21.5 14.3375 34.3 14.3375h682.5c27.1375 0 48.6375-22.0125 48.6375-48.6375z" fill="#C1C7D0" p-id="8536"></path><path d="M121.85625 536.575v-97.8L24.06875 536.575h97.7875z m779.775 0l1.025-97.8 97.275 97.8h-98.3z" fill="#D30000" p-id="8537"></path><path d="M901.63125 312.8375v6.65H637.94375c-27.1375 0-48.6375-22.0125-48.6375-48.6375V0c12.8 0 25.6 5.125 34.8125 14.3375L888.31875 278.025c8.7 9.2125 13.825 21.5 13.3125 34.8125z" fill="#C1C7D0" p-id="8538"></path><path d="M502.93125 611.1125H462.81875v142.9875h39.4c44.75 0 68.9375-25.2125 68.9375-73.85 0-42.325-22.125-68.575-68.225-69.1375zM274.95625 611.1875H217.56875v60.7625h57.3875c23.5125 0 38.375-8.0625 38.375-30.7875 0-18.525-11.3875-29.975-38.375-29.975z" fill="#FF1D1D" p-id="8539"></path><path d="M24.58125 536.575v243.2c0 13.3125 5.1125 25.6 14.3375 34.8125 8.7 9.225 21.5 14.3375 34.3 14.3375h877.575c26.625 0 48.6375-21.5 48.6375-48.6375V536.575H24.58125z m254.675 178.475H217.56875v82.075h-55.8v-228.75h118.3625c53.1875 0 88.55 26.8875 88.55 71.9s-33.3125 74.775-89.425 74.775z m230.275 82.075h-102.225v-228.75h103.4c77.075 0 119.25 50.025 119.25 110.375 0 73.225-53.85 118.375-120.425 118.375z m354.3375-184.5875H731.13125v52.025h123.8125v44.4875h-123.8125v88.0625h-55.5125v-228.75h188.25v44.1625z" fill="#FF1D1D" p-id="8540"></path><path d="M280.11875 568.375h-118.35v228.75h55.8v-82.075h61.6875c56.1125 0 89.425-28 89.425-74.775s-35.3625-71.9-88.55-71.9z m-5.175 103.575h-57.3875v-60.7625h57.3875c26.9875 0 38.375 11.45 38.375 29.975 0 22.7125-14.875 30.7875-38.375 30.7875zM510.70625 568.375h-103.4v228.75h102.225c66.575 0 120.425-45.15 120.425-118.375 0-60.35-42.1625-110.375-119.25-110.375z m-8.5 185.725h-39.4V611.1125h40.1125c46.0875 0.575 68.225 26.825 68.225 69.1375 0 48.6375-24.1875 73.85-68.9375 73.85zM675.61875 797.125h55.5125v-88.0625h123.8125v-44.4875h-123.8125v-52.025h132.7375V568.375h-188.25v228.75z" fill="#FFFFFF" p-id="8541"></path></svg>