<svg t="1687231304570" class="icon" viewBox="0 0 1024 1024" version="1.1" xmlns="http://www.w3.org/2000/svg" p-id="1849" width="200" height="200"><path d="M704 0H192a64 64 0 0 0-64 64v320h576a64 64 0 0 1 64 64v416a64 64 0 0 1-64 64H128v32a64 64 0 0 0 64 64h768a64 64 0 0 0 64-64V320z" fill="#EAEAEA" p-id="1850"></path><path d="M704 0v256a64 64 0 0 0 64 64h256z" fill="#434854" p-id="1851"></path><path d="M768 320l256 256V320H768z" opacity=".1" p-id="1852"></path><path d="M704 832a32 32 0 0 1-32 32H32a32 32 0 0 1-32-32V480a32 32 0 0 1 32-32h640a32 32 0 0 1 32 32z" fill="#0B9BE3" p-id="1853"></path><path d="M192 544h-48a16 16 0 0 0-16 16v192a16 16 0 0 0 32 0v-80h32a64 64 0 0 0 0-128z m0 96h-32v-64h32a32 32 0 0 1 0 64z m160 0a32 32 0 0 1 0-64h48a16 16 0 0 0 0-32h-48a64 64 0 0 0 0 128 32 32 0 0 1 0 64h-48a16 16 0 0 0 0 32h48a64 64 0 0 0 0-128z m160-96h-48a16 16 0 0 0-16 16v192a16 16 0 0 0 16 16h48a64 64 0 0 0 64-64v-96a64 64 0 0 0-64-64z m32 160a32 32 0 0 1-32 32h-32V576h32a32 32 0 0 1 32 32z" fill="#FFFFFF" p-id="1854"></path></svg>