<svg t="1691029457956" class="icon" viewBox="0 0 1024 1024" version="1.1" xmlns="http://www.w3.org/2000/svg" p-id="1669" width="200" height="200"><path d="M288 938.666667h618.666667a10.666667 10.666667 0 0 0 10.666666-10.666667V298.666667H736c-17.642667 0-32-14.357333-32-32V85.333333H288a10.666667 10.666667 0 0 0-10.666667 10.666667v832a10.666667 10.666667 0 0 0 10.666667 10.666667z" fill="#FFFFFF" p-id="1670"></path><path d="M912.917333 277.333333L725.333333 89.749333V266.666667a10.666667 10.666667 0 0 0 10.666667 10.666666h176.917333z" fill="#FFFFFF" p-id="1671"></path><path d="M929.290667 263.541333L739.125333 73.376A31.765333 31.765333 0 0 0 716.501333 64H288c-17.642667 0-32 14.357333-32 32v832c0 17.642667 14.357333 32 32 32h618.666667c17.642667 0 32-14.357333 32-32V286.165333c0-8.533333-3.338667-16.576-9.376-22.624zM725.333333 89.749333L912.917333 277.333333H736a10.666667 10.666667 0 0 1-10.666667-10.666666V89.749333zM906.666667 938.666667H288a10.666667 10.666667 0 0 1-10.666667-10.666667V96a10.666667 10.666667 0 0 1 10.666667-10.666667h416v181.333334c0 17.642667 14.357333 32 32 32h181.333333v629.333333a10.666667 10.666667 0 0 1-10.666666 10.666667z" fill="#605E5C" opacity=".64" p-id="1672"></path><path d="M416 789.333333h170.666667a21.333333 21.333333 0 0 0 21.333333-21.333333V650.666667a21.333333 21.333333 0 0 0-21.333333-21.333334H416v160z" fill="#C8C6C4" p-id="1673"></path><path d="M768 789.333333H661.333333a10.666667 10.666667 0 1 1 0-21.333333h106.666667a10.666667 10.666667 0 1 1 0 21.333333z m0-64H661.333333a10.666667 10.666667 0 1 1 0-21.333333h106.666667a10.666667 10.666667 0 1 1 0 21.333333z m0-64H661.333333a10.666667 10.666667 0 1 1 0-21.333333h106.666667a10.666667 10.666667 0 1 1 0 21.333333zM629.333333 544H490.666667a10.666667 10.666667 0 1 1 0-21.333333h138.666666a10.666667 10.666667 0 1 1 0 21.333333z m0-64H490.666667a10.666667 10.666667 0 1 1 0-21.333333h138.666666a10.666667 10.666667 0 1 1 0 21.333333z" fill="#7DBAB2" p-id="1674"></path><path d="M128 789.333333h341.333333a42.666667 42.666667 0 0 0 42.666667-42.666666V405.333333a42.666667 42.666667 0 0 0-42.666667-42.666666H128a42.666667 42.666667 0 0 0-42.666667 42.666666v341.333334a42.666667 42.666667 0 0 0 42.666667 42.666666z" fill="#077568" p-id="1675"></path><path d="M318.442667 448c31.52 0 55.68 7.072 72.426666 21.173333 16.746667 14.112 25.130667 34.56 25.130667 61.312 0 17.184-4.149333 32.458667-12.426667 45.834667-8.288 13.386667-20.074667 23.786667-35.349333 31.210667C352.96 614.954667 335.253333 618.666667 315.125333 618.666667h-48.469333v96H213.333333V448h105.109334zM266.666667 576h42.314666c16.490667 0 28.949333-3.733333 37.386667-11.146667 8.426667-7.434667 12.629333-18.293333 12.629333-32.576 0-27.733333-16.138667-41.610667-48.448-41.610666H266.666667v85.333333z" fill="#F9F7F7" p-id="1676"></path></svg>