<svg t="1689756629157" class="icon" viewBox="0 0 1024 1024" version="1.1" xmlns="http://www.w3.org/2000/svg" p-id="1815" width="200" height="200"><path d="M726.624 64L864 201.376V960H160V64h566.624z m-24.256 32H192v832h640V229.92h-65.6a64 64 0 0 1-64-64L702.368 96z" fill="#646E7F" p-id="1816"></path><path d="M671.936 400c35.392 0 64.064 28.672 64.064 64.064v84.672a64.064 64.064 0 0 1-64.064 64.064H512c0 8.736 7.168 21.504 15.904 21.504H624v37.632A64.064 64.064 0 0 1 559.936 736h-95.872a64.064 64.064 0 0 1-64.064-64.064v-84c0-35.392 28.672-63.84 64.064-63.84h117.6a63.872 63.872 0 0 0 63.84-64.064V400h26.432z m-109.536 268.8a16.8 16.8 0 1 0 0 33.6 16.8 16.8 0 0 0 0-33.6z" fill="#FFB902" p-id="1817"></path><path d="M559.936 288c35.392 0 64.064 28.672 64.064 64.064v84a63.872 63.872 0 0 1-64.064 63.84h-117.6a63.872 63.872 0 0 0-63.84 64.064V624h-26.432A64.064 64.064 0 0 1 288 559.936v-84.672c0-35.392 28.672-64.064 64.064-64.064H512c0-8.736-7.168-21.504-15.904-21.504H400v-37.632C400 316.672 428.672 288 464.064 288h95.872z m-98.336 44.8a16.8 16.8 0 1 0 0 33.6 16.8 16.8 0 0 0 0-33.6z" fill="#007EE6" p-id="1818"></path></svg>