<svg t="1687228797816" class="icon" viewBox="0 0 1024 1024" version="1.1" xmlns="http://www.w3.org/2000/svg" p-id="2367" width="200" height="200"><path d="M901.632 926.72c0 12.8-5.12 25.088-14.336 34.304-9.216 9.216-21.504 14.336-34.304 14.336H170.496c-12.8 0-25.6-5.12-34.304-14.336-9.216-9.216-14.336-21.504-14.336-34.304V48.64c0-12.8 5.12-25.6 14.336-34.304C144.896 5.12 157.696 0 170.496 0h418.816c12.8 0 25.6 5.12 34.816 14.336l263.68 263.68c9.216 9.216 14.336 21.504 14.336 34.816V926.72z" fill="#EBECF0" p-id="2368"></path><path d="M901.632 926.72v48.64c0 12.8-5.12 25.6-14.336 34.304-9.216 9.216-21.504 14.336-34.304 14.336H170.496c-27.136 0-48.64-22.016-48.64-48.64V926.72c0 12.8 5.12 25.088 14.336 34.304 9.216 9.216 21.504 14.336 34.304 14.336h682.496c27.136 0 48.64-22.016 48.64-48.64z" fill="#C1C7D0" p-id="2369"></path><path d="M24.064 536.576h975.36v243.712c0 27.136-22.016 48.64-48.64 48.64H73.216c-12.8 0-25.6-5.12-34.304-14.336-9.216-9.216-14.336-21.504-14.336-34.816v-243.2z" fill="#FF527B" p-id="2370"></path><path d="M121.856 536.576V438.784L24.064 536.576h97.792z m779.776 0l1.024-97.792 97.28 97.792h-98.304z" fill="#DD1D54" p-id="2371"></path><path d="M901.632 312.832v6.656h-263.68c-27.136 0-48.64-22.016-48.64-48.64V0c12.8 0 25.6 5.12 34.816 14.336l264.192 263.68c8.704 9.216 13.824 21.504 13.312 34.816z" fill="#C1C7D0" p-id="2372"></path><path d="M381.44 634.88H323.072c-0.512-6.144-3.584-10.24-9.216-12.288-3.584-2.56-8.704-4.096-15.36-4.096-13.824 0-20.48 3.584-20.48 11.264 0 6.656 12.288 13.312 36.864 19.456 48.128 11.776 72.192 31.744 72.192 59.392-1.536 41.984-30.72 62.976-88.576 63.488-50.176-2.048-78.336-22.528-84.48-61.44h59.392c2.048 6.656 5.632 11.776 10.24 15.36 4.608 2.56 10.752 4.096 17.408 4.096 17.92 0 26.624-4.608 26.624-13.312 0-7.68-11.776-13.824-35.84-19.456-48.64-11.776-73.216-32.256-73.216-61.44 1.536-38.912 28.672-59.392 81.408-60.416 48.128 0.512 75.264 19.968 81.408 59.392zM465.92 769.536l-64.512-188.928h62.464l32.768 125.44 33.792-125.44h62.464L527.36 769.536H465.92zM800.768 665.6v103.936h-39.936l-2.048-18.432c-12.288 14.336-31.744 21.504-57.344 21.504-58.88-2.56-89.6-34.816-91.648-95.744 3.584-65.024 36.352-98.816 98.816-101.888 50.688 1.536 80.896 24.576 90.624 69.632h-59.392c-4.096-15.872-14.848-23.552-31.744-23.552-23.552 0.512-35.328 18.944-35.84 55.296 0.512 34.304 13.824 51.2 39.936 51.2 16.384-2.048 27.136-9.216 31.744-21.504h-27.648v-40.96h84.48z" fill="#FFFFFF" p-id="2373"></path></svg>