<svg t="1687232427507" class="icon" viewBox="0 0 1024 1024" version="1.1" xmlns="http://www.w3.org/2000/svg" p-id="31236" width="200" height="200"><path d="M192 384h640a42.666667 42.666667 0 0 1 42.666667 42.666667v362.666666a42.666667 42.666667 0 0 1-42.666667 42.666667H192v106.666667a21.333333 21.333333 0 0 0 21.333333 21.333333h725.333334a21.333333 21.333333 0 0 0 21.333333-21.333333V308.821333L949.909333 298.666667h-126.528A98.048 98.048 0 0 1 725.333333 200.618667V72.661333L716.714667 64H213.333333a21.333333 21.333333 0 0 0-21.333333 21.333333v298.666667zM128 832H42.666667a42.666667 42.666667 0 0 1-42.666667-42.666667V426.666667a42.666667 42.666667 0 0 1 42.666667-42.666667h85.333333V85.333333a85.333333 85.333333 0 0 1 85.333333-85.333333h530.026667L1024 282.453333V938.666667a85.333333 85.333333 0 0 1-85.333333 85.333333H213.333333a85.333333 85.333333 0 0 1-85.333333-85.333333v-106.666667z m35.392-364.885333c-26.218667 0-47.658667 6.528-64.682667 19.968-18.368 13.824-27.221333 33.024-27.221333 57.216s9.173333 42.624 27.904 55.296c7.146667 4.608 25.877333 12.288 55.829333 23.04 26.88 9.216 42.538667 15.36 47.317334 18.048 14.976 8.448 22.805333 19.968 22.805333 34.56 0 11.52-5.461333 20.352-15.658667 27.264-10.218667 6.528-24.512 9.984-42.218666 9.984-20.074667 0-34.709333-4.224-44.245334-11.904-10.538667-8.832-17.024-23.808-19.733333-44.544H64c1.706667 34.944 12.928 60.288 33.365333 76.416 16.661333 13.056 40.149333 19.584 70.101334 19.584 30.976 0 55.146667-7.296 72.170666-21.12 17.024-14.208 25.514667-33.792 25.514667-58.368 0-25.344-10.538667-44.928-31.637333-59.136-9.536-6.144-30.634667-15.36-63.658667-26.88-22.464-8.064-36.416-13.824-41.536-16.896-11.562667-6.912-17.002667-16.512-17.002667-28.032 0-13.056 4.757333-22.656 14.976-28.416 8.170667-4.992 19.733333-7.296 35.050667-7.296 17.706667 0 31.317333 3.456 40.170667 11.136 8.853333 7.296 15.317333 19.584 18.709333 36.48h39.488c-2.389333-29.952-12.245333-52.224-29.269333-66.432-16-13.44-38.464-19.968-67.050667-19.968z m113.685333 5.376L346.837333 746.666667h42.56l47.658667-206.208h1.344L485.717333 746.666667h42.218667l70.101333-274.176h-44.928l-45.610666 208.512h-1.365334l-48-208.512h-41.173333l-48 208.512h-1.344l-45.610667-208.512h-44.928z m346.496 0V746.666667h39.829334v-121.344h118.784v-38.4h-118.784v-76.032H789.333333v-38.4h-165.76z" fill="#B56B00" p-id="31237"></path></svg>