<svg t="1687231553431" class="icon" viewBox="0 0 1024 1024" version="1.1" xmlns="http://www.w3.org/2000/svg" p-id="1120" width="200" height="200"><path d="M143.07328 0c-46.2848 0-80.9984 34.7136-80.9984 80.9984v862.0032c0 46.2848 34.7136 80.9984 80.9984 80.9984h728.94976c46.2848 0 80.99328-34.7136 80.99328-80.9984V323.98336L652.18048 0H143.07328z" fill="#8199AF" p-id="1121"></path><path d="M958.80192 323.97824v17.3568h-202.48576s-98.3552-23.1424-98.3552-109.9264c0 0 5.7856 92.5696 98.3552 92.5696h202.48576z" fill="#617F9B" p-id="1122"></path><path d="M652.18048 0v231.41376c0 23.1424 17.3568 92.56448 98.35008 92.56448h202.48576L652.18048 0zM455.4752 786.80064c-11.5712 0-17.3568-5.7856-17.3568-5.7856v-40.4992c11.5712-69.42208 75.2128-75.20256 75.2128-115.70176 0-28.928-23.1424-34.7136-46.2848-40.4992-17.3568 0-34.7136 5.7856-57.856 23.1424 0 0-5.7856 5.7856-11.5712 5.7856-11.5712 0-17.3568-5.7856-17.3568-17.3568 0-5.7856 0-5.7856 5.7856-5.7856 28.928-23.1424 46.2848-34.7136 80.9984-34.7136 46.2848 0 69.4272 23.1424 75.20768 63.6416 5.7856 57.856-63.6416 75.2128-69.4272 121.49248v40.4992s-5.7856 5.7856-17.3568 5.7856m-17.35168 52.06528c0 11.5712 11.5712 23.1424 23.1424 23.1424s23.1424-11.5712 23.1424-23.1424-11.5712-23.1424-23.1424-23.1424c-17.3568 0-23.1424 11.5712-23.1424 23.1424z" fill="#FFFFFF" p-id="1123"></path></svg>