<svg t="1687231267452" class="icon" viewBox="0 0 1024 1024" version="1.1" xmlns="http://www.w3.org/2000/svg" p-id="1690" width="200" height="200"><path d="M0 0h1024v1024H0z" fill-opacity="0" p-id="1691"></path><path d="M848 1024H176c-41.6 0-76.8-35.2-73.6-80V80c0-41.6 32-76.8 73.6-80h521.6l224 236.8v710.4c0 41.6-32 76.8-73.6 76.8z" fill="#F5ECEC" p-id="1692"></path><path d="M921.6 313.6H102.4V80c0-41.6 32-76.8 73.6-80h521.6l224 236.8v76.8z" fill="#BC8585" p-id="1693"></path><path d="M300.8 252.8v-19.2H240l57.6-96v-16h-80v16h57.6l-57.6 96v16h83.2z m70.4 0V121.6H352v131.2h19.2z m80 0v-51.2H480c12.8 0 22.4-3.2 32-12.8 6.4-6.4 9.6-16 9.6-25.6 0-6.4 0-12.8-3.2-19.2-3.2-6.4-6.4-9.6-9.6-12.8-6.4-3.2-9.6-6.4-16-6.4h-64V256h22.4z m28.8-70.4h-28.8v-41.6H480c6.4 0 9.6 0 12.8 3.2 3.2 0 3.2 3.2 6.4 6.4 0 3.2 3.2 6.4 3.2 9.6 0 6.4-3.2 9.6-6.4 12.8-3.2 6.4-9.6 9.6-16 9.6z" fill="#FFFFFF" p-id="1694"></path><path d="M921.6 236.8H771.2c-41.6 0-76.8-35.2-73.6-80V0l112 118.4 112 118.4z" fill="#F5ECEC" p-id="1695"></path><path d="M425.6 464v409.6h172.8V464H425.6zM576 604.8h-64v41.6h64v44.8h-64v41.6h64v44.8h-64v44.8h-64v-44.8h64v-44.8h-64v-41.6h64v-44.8h-64v-41.6h64v-41.6h-64v-44.8h64v44.8h64v41.6z" fill="#BC8585" p-id="1696"></path></svg>